<svg xmlns="http://www.w3.org/2000/svg" width="30" height="35" viewBox="0 0 30 35"><g><g><path fill="#fff" d="M2.85 9.038a3.4 3.4 0 0 1-.312-1.42c0-1.871 1.502-3.39 3.356-3.39.837 0 1.6.312 2.188.824A16.305 16.305 0 0 0 2.85 9.038zM0 19.848c0-3.736 1.342-7.154 3.561-9.797a15.047 15.047 0 0 1 5.295-4.023 14.72 14.72 0 0 1 3.606-1.111v-2.84h-1.3c-.432 0-.78-.465-.78-1.038 0-.575.348-1.038.78-1.038h7.677c.431 0 .78.463.78 1.038 0 .573-.349 1.038-.78 1.038h-1.3v2.84C24.614 6.138 30 12.356 30 19.849 30 28.216 23.285 35 15 35 6.718 35 0 28.216 0 19.848zm2.546 0C2.546 26.785 8.133 32.43 15 32.43s12.456-5.644 12.456-12.58c0-6.938-5.588-12.582-12.456-12.582-2.162 0-4.196.56-5.969 1.544a12.6 12.6 0 0 0-6.487 11.037zm1.804 0a10.777 10.777 0 0 1 5.573-9.46 10.532 10.532 0 0 1 5.761-1.277 10.516 10.516 0 0 1 5.271 1.816 10.78 10.78 0 0 1 4.696 8.92 10.778 10.778 0 0 1-5.574 9.46 10.527 10.527 0 0 1-5.077 1.3 10.515 10.515 0 0 1-5.955-1.837 10.787 10.787 0 0 1-4.696-8.922zm2.629 2.614l8.022-3.113v-8.061c-5.56 0-9.442 5.586-8.022 11.174z"/></g></g></svg>