<?xml version="1.0" encoding="UTF-8" standalone="no"?>
<svg xmlns="http://www.w3.org/2000/svg" width="22" height="19" viewBox="0 0 22 19">
  <path fill="#fd9a1e" d="M22 6.334v2.46c-.002.663-.884 1.182-2.2 1.57v2.3c0 .11-.025.215-.072.316.757.302 1.14.662 1.166 1.094h.006v2.46c-.003 1.171-2.749 1.898-5.8 2.237-.022.004-.043.015-.067.015-.007 0-.013-.004-.02-.004a39.14 39.14 0 0 1-1.777.148c-.012 0-.023.006-.036.006-.007 0-.013-.003-.02-.003a36.7 36.7 0 0 1-4.361 0c-.007 0-.012.003-.02.003-.012 0-.023-.005-.035-.006a39.066 39.066 0 0 1-1.778-.148c-.007 0-.013.004-.02.004-.023 0-.044-.01-.066-.014-3.051-.339-5.797-1.065-5.8-2.236v-2.461h.005a.76.76 0 0 1 .05-.22C.437 13.524 0 13.13 0 12.664v-2.461h.004C.039 9.61.759 9.147 2.2 8.79V6.334h.005a.771.771 0 0 1 .033-.181C.901 5.764.002 5.24 0 4.573V2.11h.006C.138.06 8.894 0 9.9 0c1.006 0 9.762.06 9.894 2.111h.006v2.46a.772.772 0 0 1-.079.331c1.492.36 2.238.83 2.275 1.433zm-2.933 6.33v-1.456a5.53 5.53 0 0 1-1.1.483v1.679c.422-.16.742-.324.935-.485l.125-.106c.025-.04.04-.08.04-.115zm-7.57 1.729c.08-.005.158-.008.236-.011v-1.757a50.56 50.56 0 0 1-1.105.034h-.059l-.302.005v1.757l.398-.004a35.505 35.505 0 0 0 .832-.024zm-2.177.026c.07.003.142.003.213.004v-1.76l-.302-.004h-.058c-.37-.007-.739-.017-1.106-.035v1.758c.197.008.395.017.595.023a30.559 30.559 0 0 0 .563.013l.095.001zm-6.583-.767c.282.075.593.148.93.215V12.15c-.39-.074-.758-.154-1.1-.244v1.701a.317.317 0 0 1 .035.01c.044.012.09.022.135.035zm7.535 2.877a40.71 40.71 0 0 1-1.106-.034v1.758c.471.022.96.036 1.467.04v-1.76l-.302-.003-.059-.001zm1.397.001l-.303.003v1.76c.507-.005.996-.02 1.467-.04v-1.758c-.367.016-.737.027-1.106.034l-.058.001zm1.897-.075v1.754a32.7 32.7 0 0 0 1.1-.09v-1.75c-.36.035-.727.062-1.1.086zm1.834 1.579c.388-.048.755-.103 1.1-.161v-1.727c-.355.053-.722.104-1.1.148zm1.833-.296c.406-.084.774-.17 1.1-.26v-1.7c-.342.087-.71.17-1.1.242zm-13.567-1.96v1.7c.327.09.695.176 1.1.26V16.02a16.92 16.92 0 0 1-1.1-.243zM5.5 17.872c.345.059.712.113 1.1.162v-1.74a28.936 28.936 0 0 1-1.1-.149zm1.833.245c.352.035.72.067 1.1.093v-1.756a39.63 39.63 0 0 1-1.1-.085zm0-3.779v-1.754a45.61 45.61 0 0 1-1.1-.085v1.747l.079.008.112.011c.297.027.601.052.91.073zM4.4 12.275v1.727c.345.06.712.113 1.1.161v-1.74a27.19 27.19 0 0 1-1.1-.148zm8.47 2.036c.238-.02.47-.042.697-.064V12.5c-.361.032-.729.062-1.1.085v1.755a13.904 13.904 0 0 0 .403-.03zm2.53-.309v-1.727c-.355.055-.722.106-1.1.148v1.74c.387-.047.754-.102 1.1-.161zm.733-.136a14.6 14.6 0 0 0 1.1-.26v-1.7c-.342.09-.71.17-1.1.244zm-4.933-3.32c.174.003.354.003.533.005V8.793c-.101 0-.202-.002-.303-.004h-.057c-.37-.007-.739-.018-1.106-.035v1.757l.042.003c.265.012.534.021.81.028l.081.004zM2.964 5.617c.182.046.372.09.567.13l.135.028V4.057a17.92 17.92 0 0 1-1.1-.243v1.7c.127.034.26.07.398.103zm6.208-1.05a58.08 58.08 0 0 1-1.106-.033v1.754c.483.024.974.035 1.467.04V4.571c-.1 0-.201-.003-.302-.003h-.059zm1.397 0l-.302.004v1.757c.132-.002.265-.002.396-.005.04 0 .08 0 .119-.002.254-.004.505-.01.75-.022h.016c.063-.004.123-.009.185-.011V4.534c-.367.015-.736.025-1.106.033h-.058zm8.498.003V3.115a5.617 5.617 0 0 1-1.1.484v1.674c.381-.142.678-.288.872-.433l.133-.1.01.003c.055-.062.085-.12.085-.173zM15.4 5.908V4.182c-.355.056-.722.105-1.1.149v1.738a28.34 28.34 0 0 0 1.1-.161zm1.833-.398V3.814c-.342.088-.71.17-1.1.243v1.715c.402-.082.772-.17 1.1-.262zm-4.766-1.018v1.754c.379-.027.745-.059 1.1-.094V4.407c-.361.034-.729.062-1.1.085zM7.333 6.244V4.492a34.568 34.568 0 0 1-1.1-.085v1.746c.359.035.727.065 1.1.091zM4.4 4.182v1.729c.04.005.08.014.12.02.203.032.41.063.622.094l.138.02c.072.008.147.015.22.024V4.331a24.323 24.323 0 0 1-1.1-.149zm5.133 6.287V8.715a43.494 43.494 0 0 1-1.1-.085v1.746l.03.003c.047.005.095.009.143.016.224.02.453.038.688.058l.148.01c.03.003.062.003.091.006zm-2.488-.265c.21.032.43.061.655.09v-1.74a26.473 26.473 0 0 1-1.1-.148v1.725c.138.023.275.047.42.069l.025.004zM4.766 8.037v1.69c.328.095.695.184 1.1.266V8.28a16.12 16.12 0 0 1-1.1-.242zm-1.833-.7v1.456c0 .012.004.023.007.035l.024.038c.12.194.493.413 1.07.628V7.82a5.588 5.588 0 0 1-1.1-.484zM12.77 8.79l-.302.004v1.757a37.11 37.11 0 0 0 1.466-.04V8.753c-.367.015-.737.028-1.105.034l-.059.001zm4.831 1.343V8.406c-.355.055-.722.105-1.1.147v1.739c.094-.011.19-.022.284-.036.098-.011.196-.026.292-.04a29.8 29.8 0 0 0 .49-.077l.034-.007zm-2.478.302c.219-.016.432-.037.645-.058V8.63c-.361.033-.729.061-1.1.085v1.751c.138-.01.28-.016.416-.027.013 0 .026-.003.039-.005zm4.312-.697v-1.7c-.343.088-.711.17-1.1.242v1.718a1.24 1.24 0 0 1 .086-.017c.096-.02.189-.042.28-.062.197-.044.39-.09.573-.14l.16-.04zm-.288-4.243c-.022.014-.049.028-.072.042-.04.024-.085.05-.129.074-.038.02-.074.042-.115.064-.09.047-.189.092-.29.135l-.083.035a6.767 6.767 0 0 1-.362.138c-.123.044-.25.085-.383.128l-.139.04a6.499 6.499 0 0 1-.233.065c-1.718.472-4.187.776-6.851.814a37.21 37.21 0 0 1-2.782-.057h-.021a34.904 34.904 0 0 1-1.818-.151l-.002.001-.007-.002a26.396 26.396 0 0 1-2.396-.369c-.15-.029-.297-.062-.44-.093-.026-.008-.054-.013-.078-.018-.005.01-.005.014-.007.02.042.237.605.555 1.604.852 1.297.383 3.328.736 5.9.844.131.005.263.011.397.014a36.946 36.946 0 0 0 1.26.02c.318.001.626-.002.93-.009l.332-.01.397-.014c2.572-.11 4.602-.462 5.9-.845 1.006-.3 1.57-.618 1.604-.856-.041-.147-.474-.519-2.116-.862zM.74 2.14c.044.24.606.553 1.603.848 1.298.385 3.328.736 5.9.845.132.006.263.012.397.016.11.002.22.007.332.009a36.854 36.854 0 0 0 1.858 0c.112-.002.222-.007.331-.01.135-.003.266-.01.398-.015 2.572-.109 4.602-.46 5.9-.845.996-.295 1.559-.609 1.603-.848C19.004 1.616 15.946.703 9.9.703 3.854.703.796 1.616.739 2.14zm1.094 3.144V3.599a5.614 5.614 0 0 1-1.1-.484v1.456c0 .2.387.456 1.1.713zm-1.096 4.94c.033.24.597.557 1.605.857 1.298.384 3.328.737 5.9.846l.397.014a39.144 39.144 0 0 0 1.962.014l.272-.005c.084-.001.165-.005.248-.008 2.78-.085 4.967-.455 6.336-.861a6.901 6.901 0 0 0 1.085-.405c-1.23.254-2.683.43-4.233.519h-.015c-.466.026-.939.044-1.418.055a34.701 34.701 0 0 1-1.453 0 38.56 38.56 0 0 1-1.523-.055h-.004c-1.546-.086-2.964-.263-4.153-.505a12.194 12.194 0 0 1-.288-.06 1.144 1.144 0 0 0-.092-.018c-1.294-.288-2.333-.67-2.835-1.154-.006-.007-.014-.011-.02-.017-1.36.32-1.731.651-1.772.784zm.882 3.072l.005-.005.21.079v-1.68a5.613 5.613 0 0 1-1.1-.484v1.457c0 .178.31.403.885.631zm1.314 3.95v-1.684a5.483 5.483 0 0 1-1.1-.484v1.456c.001.198.387.457 1.1.712zm17.234-.713v-1.455c-.293.177-.665.34-1.1.484v1.684c.713-.257 1.1-.514 1.1-.713zm-.952-2.99c-.033.022-.073.044-.108.065l-.118.07a3.739 3.739 0 0 1-.101.056c-.643.343-1.58.619-2.663.833l-.077.014c-.116.023-.232.043-.35.065-.573.103-1.19.19-1.842.264-.008 0-.014.005-.023.005l-.006-.002c-.584.064-1.193.114-1.822.152l-.005.001h-.003c-.516.03-1.044.049-1.579.056a26.2 26.2 0 0 1-1.082.002 36.509 36.509 0 0 1-1.735-.059h-.003c-1.84-.105-3.545-.337-4.88-.665-.06-.015-.12-.028-.18-.044a7.739 7.739 0 0 1-.423-.116c-.01-.004-.022-.006-.034-.01-.116-.035-.23-.071-.339-.106.07.233.63.54 1.6.826 1.298.385 3.328.737 5.9.846.133.005.265.012.4.016.109.003.218.007.328.009a39.267 39.267 0 0 0 2.588-.025c2.572-.109 4.602-.46 5.9-.844 1-.297 1.564-.614 1.604-.851-.024-.088-.224-.31-.947-.558zm2.052-4.75V7.337a5.591 5.591 0 0 1-1.1.484v1.686c.713-.258 1.1-.515 1.1-.714z"/>
</svg>
