<?xml version="1.0" encoding="UTF-8" standalone="no"?>
<svg class="svg-ev" xmlns="http://www.w3.org/2000/svg" width="100" height="92" viewBox="0 0 160 145.9" fill="#228520">
  <path d="M106.9.6v20.8C77.3 38.7 47.7 55.9 18.1 73.2c.4.4 85 49.9 88.8 51.9 17.7-10.3 35.4-20.6 53.2-31v20.7c-.2.1-.4.3-.7.4-9.5 5.6-19 11.1-28.5 16.7-7.8 4.6-15.7 9.1-23.5 13.7-.1.1-.3.2-.4.3h-.2c-.2-.1-.5-.3-.7-.4-8.2-4.8-16.4-9.6-24.7-14.4-16.4-9.6-32.8-19.1-49.3-28.7C21.7 96.2 11.2 90.1.7 84l-.6-.3V62.8c.2-.1.4-.1.6-.2 2.2-1.3 4.4-2.5 6.6-3.8 29.5-17.2 59-34.4 88.6-51.7 3.4-2 6.8-4 10.2-5.9.2-.1.5-.2.6-.6h.2z"/>
  <path d="M124.6 52.5c-17.8 10.4-35.5 20.8-53.3 31.1-5.9-3.5-11.8-6.9-17.8-10.4 23.7-13.9 47.4-27.7 71.1-41.5v20.8zM142.4 62.9v20.8c-11.8 6.9-23.7 13.8-35.5 20.7-5.9-3.5-11.8-6.9-17.8-10.4 17.8-10.4 35.5-20.7 53.3-31.1z"/>
</svg>