<svg xmlns="http://www.w3.org/2000/svg" width="33" height="44" viewBox="0 0 33 44"><g><g><path fill="#fc7045" d="M15.018 21.055v22.212a.742.742 0 0 1-.751.733H.752A.742.742 0 0 1 0 43.267V21.054c-.001-3.16 1.713-6.018 4.505-7.56V.733c0-.405.336-.734.75-.734h4.506c.414 0 .75.329.75.733v12.76c2.792 1.543 4.507 4.4 4.506 7.562zm-1.502 21.479v-21.48c0-2.756-1.566-5.233-4.09-6.464a.732.732 0 0 1-.415-.656v-2.2H6.008v2.2c0 .277-.161.531-.416.656-2.523 1.232-4.091 3.71-4.09 6.464v21.48zm-4.505-37.4H6.008v5.132H9.01zm0-3.667H6.008v2.2H9.01zm23.725 24.759l-.123.511c-.684 2.595-2.923 4.461-5.584 4.756V39.6h.753c2.07 0 3.755 1.645 3.755 3.667a.742.742 0 0 1-.751.733h-9.01a.742.742 0 0 1-.751-.733c0-2.022 1.684-3.667 3.754-3.667h.749v-8.109c-2.673-.3-4.91-2.182-5.577-4.78l-.13-.538a6.056 6.056 0 0 1-.133-2.477l1.343-9.134a.747.747 0 0 1 .744-.629h9.01c.375 0 .692.268.744.63l1.344 9.173c.127.832.081 1.671-.137 2.49zm-1.348-2.277L30.135 15.4h-7.71l-1.25 8.509a4.775 4.775 0 0 0-.036.291h10.28a4.737 4.737 0 0 0-.03-.251zm-10.11 1.87l.133.544c.557 2.177 2.561 3.704 4.87 3.704h.01c2.293 0 4.292-1.513 4.864-3.682l.124-.513c.018-.068.035-.137.05-.205H21.24l.039.152zm8.628 16.715a2.253 2.253 0 0 0-2.124-1.467H24.78c-.978 0-1.814.613-2.124 1.467zM12.014 23.467v13.2a.742.742 0 0 1-.75.733H3.755a.742.742 0 0 1-.75-.733v-13.2c0-.406.336-.734.75-.734h7.509c.414 0 .75.328.75.734zm-1.501.733H4.506v11.734h6.007z"/></g></g></svg>