<svg xmlns="http://www.w3.org/2000/svg" width="21" height="34" viewBox="0 0 21 34"><g><g><path fill="#228520" d="M19.627 18.475a11.288 11.288 0 0 1-3.207 4.283 11.199 11.199 0 0 1-4.46 2.261c-2.443.592-4.986.301-7.031-.993-.968 1.253-4.004 5.482-3.386 8.659a.503.503 0 0 1-.4.583.494.494 0 0 1-.592-.378c-.703-3.556 2.523-8.093 3.567-9.44a7.916 7.916 0 0 1-2.198-2.887 8.018 8.018 0 0 1-.518-4.884 8.185 8.185 0 0 1 2.732-4.55 10.334 10.334 0 0 1 2.612-1.63c7.268-3.175 8.27-8.537 8.265-8.55V.947a.517.517 0 0 1 .928-.186c5.082 7.39 5.496 13.455 3.688 17.713zm-7.077-5.074l-1.537-3.554-.015-.036a.496.496 0 0 1 .3-.637.5.5 0 0 1 .649.28l1.196 2.763a20.57 20.57 0 0 0 2.07-8.983c-1.019 2.024-3.265 5.079-8.066 7.162a9.268 9.268 0 0 0-2.355 1.457 7.194 7.194 0 0 0-2.41 4.002 7.067 7.067 0 0 0 1.676 6.14c.235.26.49.502.763.724 3.752-3.213 6.177-6.41 7.729-9.318zM16.215 3.06c.053 2.253-.323 6.056-2.624 10.51a29.395 29.395 0 0 1-3.158 4.803l3.45-.434a.491.491 0 0 1 .547.409c.039.269-.153.52-.43.564l-4.49.567a38.819 38.819 0 0 1-3.864 3.822c1.822 1.033 4.009 1.308 6.075.766a10.111 10.111 0 0 0 4.056-2.04 10.281 10.281 0 0 0 2.914-3.91v-.004c1.552-3.65 1.322-8.777-2.476-15.053z"/></g></g></svg>