<svg xmlns="http://www.w3.org/2000/svg" width="40" height="40" viewBox="0 0 40 40"><g><g><path fill="#fc7045" d="M31.07 40h-6.712H8.823 4.77.716a.676.676 0 0 1-.672-.752L1.395 27.06a.677.677 0 0 1 .672-.603h.724L4.095 8.8a.676.676 0 0 1 .674-.627h4.053c.353 0 .647.274.673.627L10.8 26.456h2.75v-5.161c0-.89.719-1.61 1.606-1.61h2.193c.887 0 1.605.72 1.605 1.61v5.161h1.888l9.33-4.007a.675.675 0 0 1 .941.622v3.036zM14.902 26.456h2.702v-5.161a.254.254 0 0 0-.254-.255h-2.193a.254.254 0 0 0-.255.255zm-2.622 1.355l1.2 10.834h6.826V27.811zm-8.134-1.355h5.3L8.195 9.528H5.396zm-2.674 12.19h2.623v-4.74c0-.375.302-.677.675-.677h4.053c.373 0 .675.302.675.677v4.74h2.623l-.667-6.016-.534-4.819H2.672zm6.675 0v-4.063H5.444v4.062zm13.51-11.065v11.065h2.027v-4.063c0-.374.302-.677.675-.677h2.702c.373 0 .676.303.676.677v4.063h2.026V24.098zm4.729 11.064V35.26h-1.351v3.386zM6.83 5.93c.172-.523.592-1.254 1.358-1.974 1.25-1.176 3.02-1.877 5.362-1.877h1.103a5.35 5.35 0 0 1 1.08-.619c1.04-.46 2.334-.735 3.895-.735a4.555 4.555 0 0 1 1.583.271c.573.209 1.04.53 1.354.968a6.83 6.83 0 0 1 .398-.39C24.017.63 25.368.057 27.021.048c.514-.047 1.252.164 2.19.793.897.6 1.663 1.425 2.303 2.43 1.09 1.71 2.387 2.872 3.652 2.872l.12.01c.245.023.56-.032.858-.23.634-.423 1.049-1.393 1.049-3.166a.675.675 0 0 1 1.128-.503c.038.035.1.094.18.178 3.499 3.634.912 9.684-4.141 9.799-.163.004-.331.006-.567.012-.978.079-2.159-.189-3.294-1.08-.3.316-.636.631-1.007.927-1.158.923-2.414 1.49-3.775 1.505-.416.037-.967-.027-1.62-.26-.94-.338-1.923-.976-2.932-1.987-.45.41-1.187.651-2.115.784-.694.1-1.41.124-2.122.105-1.84 0-3.139-1.059-3.957-2.752a8.616 8.616 0 0 1-.616-1.769 6.788 6.788 0 0 1-.144-.77c-.122-.642-.76-.895-1.957-.785a9.13 9.13 0 0 0-1.543.294 12.12 12.12 0 0 0-.995.319.676.676 0 0 1-.886-.844zm2.252-.957c.357-.075.708-.13 1.05-.161 1.802-.166 3.117.357 3.414 1.933.014.122.052.355.124.66.12.51.29 1.02.517 1.49.614 1.27 1.495 1.988 2.772 1.989l.097.003c.55.014 1.197-.008 1.803-.095.691-.1 1.14-.264 1.334-.418l-1.04-1.043a.675.675 0 1 1 .955-.958l1.35 1.354.676.677c.857.859 1.67 1.386 2.418 1.655.464.166.819.207 1.043.188l.114-.01c.987 0 1.988-.447 2.942-1.207a8.435 8.435 0 0 0 1.25-1.236.675.675 0 0 1 1.014-.067c.107.107.216.206.327.297a3.79 3.79 0 0 0 1.554.787c.355.083.661.1.92.08l.1-.008c.176 0 .347-.002.512-.006 3.359-.077 5.296-3.547 4.042-6.28-.249 1.165-.757 1.974-1.48 2.454-.59.393-1.203.5-1.77.446-1.86-.024-3.435-1.442-4.745-3.498-.544-.855-1.184-1.543-1.914-2.032-.41-.274-.756-.44-1.037-.52-.154-.044-.246-.053-.24-.056l-.124.012c-1.321 0-2.37.441-3.196 1.181a4.674 4.674 0 0 0-.72.814 2.85 2.85 0 0 0-.204.331c-.313.647-1.284.424-1.284-.295 0-.597-.306-.946-.906-1.164a3.295 3.295 0 0 0-1.12-.19c-1.375 0-2.483.234-3.35.62-.494.218-.79.425-.905.54a.675.675 0 0 1-.474.194h-1.35c-2 0-3.44.57-4.47 1.54zm5.144 30.965v-5.418a.676.676 0 1 1 1.35 0v5.418a.677.677 0 1 1-1.35 0zm3.377 0v-5.418a.676.676 0 1 1 1.351 0v5.418a.677.677 0 1 1-1.35 0zm6.08-4.74v-2.709c0-.373.302-.677.675-.677h2.702c.373 0 .676.304.676.677v2.709a.676.676 0 0 1-.676.677h-2.702a.676.676 0 0 1-.675-.677zm1.35-.678h1.352v-1.354h-1.351z"/></g></g></svg>