<svg xmlns="http://www.w3.org/2000/svg" width="40" height="45" viewBox="0 0 40 45"><g><g><path fill="#fc7045" d="M12.388 8.25c0 2.485-1.952 4.5-4.36 4.5-2.406-.003-4.357-2.016-4.36-4.5 0-2.485 1.953-4.5 4.36-4.5 2.408 0 4.36 2.015 4.36 4.5zm-1.453 0c0-1.657-1.301-3-2.907-3-1.605 0-2.906 1.343-2.906 3s1.301 3 2.906 3c1.606 0 2.907-1.343 2.907-3zM16.021 30c0 .414-.325.75-.726.75h-2.907v9.75c0 .414-.325.75-.726.75H4.395a.739.739 0 0 1-.726-.75v-9.75H.762a.719.719 0 0 1-.581-.3.77.77 0 0 1-.115-.665l4.36-15a.73.73 0 0 1 .696-.535h5.813a.73.73 0 0 1 .696.535l4.36 15c.02.07.03.142.03.215zm-1.703-.75l-3.924-13.5H5.663l-3.924 13.5h2.656c.402 0 .727.336.727.75v9.75h2.18v-10.5h1.453v10.5h2.18V30c0-.414.325-.75.727-.75zm22.776-21c-.003 2.484-1.953 4.497-4.36 4.5-2.408 0-4.36-2.015-4.36-4.5s1.952-4.5 4.36-4.5c2.408 0 4.36 2.015 4.36 4.5zm-1.454 0c0-1.657-1.3-3-2.906-3-1.605 0-2.907 1.343-2.907 3s1.302 3 2.907 3 2.906-1.343 2.906-3zM40 19.5V30c0 .414-.325.75-.727.75h-2.18v9.75c0 .414-.325.75-.726.75h-7.266a.739.739 0 0 1-.727-.75v-9.75h-2.18a.739.739 0 0 1-.726-.75V19.5c.003-2.898 2.278-5.247 5.086-5.25h4.36c2.808.003 5.083 2.352 5.086 5.25zm-1.453 0c-.002-2.07-1.628-3.747-3.633-3.75h-4.36c-2.006.003-3.63 1.68-3.633 3.75v9.75h1.453v-9h1.453v19.5h2.18v-10.5h1.453v10.5h2.18v-19.5h1.454v9h1.453zM19.655 0h1.453v45h-1.453z"/></g></g></svg>