<svg xmlns="http://www.w3.org/2000/svg" width="40" height="40" viewBox="0 0 40 40"><g><g><path fill="#fc7045" d="M40 20.578l-.007 8.329-5.352-1.64v2.459l-2.181-.707a16.72 16.72 0 0 1-.716.766 16.445 16.445 0 0 1-3.133 2.443v5.105a.668.668 0 0 1-.586.662l-16.078 2a.668.668 0 0 1-.753-.662v-6h-5.36a.668.668 0 0 1-.67-.666v-6H.75a.666.666 0 0 1-.638-.866L3.301 15.8a16.668 16.668 0 0 1 8.325-12.278L11.082 0h13.082l-.557 1.764a16.642 16.642 0 0 1 8.138 4.453c.289.288.562.59.83.898l.91-.907 5.108 6.734-2.432 1.104a16.28 16.28 0 0 1 .206 6.985zm-9.973-9.044l1.784 2.489-2.077 1.034 1.474 1.467-1.553 1.543 3.054-1.46-1.697-1.688 5.504-2.501-3.172-4.185zm-17.383-10.2l1.134 7.333h4.375l-1.34 4h3.76v6.151L23.661 10h-4.063l2.74-8.667zm18.425 27.23l-9.295-3.23h9.517V22.31l2.01.78v-1.68l1.665-.208c.23-1.052.345-2.126.345-3.203a15.096 15.096 0 0 0-.383-3.395l-1.604.729 1.668 1.66-11.874 5.684 6.192-6.148-1.845-1.83 2.345-1.166-1.532-2.146 3.35-3.334a15.317 15.317 0 0 0-8.419-5.025l-1.784 5.638h4.097l-6.29 17.848V14h-4.279l1.34-4h-3.665l-.783-5.067A15.333 15.333 0 0 0 4.623 16.03a.586.586 0 0 1-.026.118l-2.932 9.184h4.17c.37 0 .67.299.67.667v6h5.358c.37 0 .67.299.67.667v5.91l14.738-1.834v-4.898c0-.239.128-.46.335-.578a15.138 15.138 0 0 0 3.463-2.704zm7.591-6.476l-4.02.5v2.454l-2.01-.78v2.404h-2.955l3.626 1.224v-2.423l5.35 1.636z"/></g></g></svg>