<?xml version="1.0" encoding="UTF-8" standalone="no"?>
<svg xmlns="http://www.w3.org/2000/svg" width="20" height="23.82" viewBox="0 0 20 23.82">
  <path d="M17.13 15.01a2.283 2.283 0 0 0-1.54-.98 2.326 2.326 0 0 0-1.74.56l-1.71 1.38c-.11-.09-.23-.17-.34-.25a4.384 4.384 0 0 1-.45-.33 17.1 17.1 0 0 1-3.52-4.24 10.5 10.5 0 0 1-1.05-2.29c.44-.32.85-.66 1.25-.99.16-.12.31-.25.46-.37a2.366 2.366 0 0 0 .41-3.45L7.74 2.52c-.13-.17-.26-.35-.39-.53-.25-.35-.52-.7-.79-1.04A2.3 2.3 0 0 0 5.03.01a2.344 2.344 0 0 0-1.72.52L3.3.54 1.46 2.05A3.6 3.6 0 0 0 .14 4.23a9.15 9.15 0 0 0 .17 3.78 22.054 22.054 0 0 0 2.93 6.83 23.381 23.381 0 0 0 6.82 7.07 11.631 11.631 0 0 0 4.09 1.84c.1.01.2.03.3.04a3.552 3.552 0 0 0 2.93-.88.038.038 0 0 1 .02-.02c.29-.28.61-.53.95-.8.23-.17.47-.36.7-.56a2.5 2.5 0 0 0 .93-1.63 2.443 2.443 0 0 0-.54-1.81zm1.1 5.47c-.22.18-.43.35-.66.53a11.944 11.944 0 0 0-1.05.88 2.3 2.3 0 0 1-1.91.57c-.07-.02-.14-.02-.22-.04a10.294 10.294 0 0 1-3.61-1.64 21.915 21.915 0 0 1-6.43-6.67A20.791 20.791 0 0 1 1.59 7.7a7.445 7.445 0 0 1-.17-3.19 2.317 2.317 0 0 1 .84-1.4l1.85-1.49a1.074 1.074 0 0 1 .77-.26 1.031 1.031 0 0 1 .66.44.038.038 0 0 1 .02.02c.26.31.5.64.76 1 .13.18.26.36.4.54l1.15 1.52a.981.981 0 0 1-.18 1.55c-.16.13-.31.26-.47.38-.45.37-.89.72-1.35 1.06-.01.01-.02.01-.03.02a1.042 1.042 0 0 0-.38 1.1.09.09 0 0 0 .01.05 11 11 0 0 0 1.24 2.82 18.405 18.405 0 0 0 3.8 4.58 5.337 5.337 0 0 0 .56.41c.16.11.31.22.44.32a.218.218 0 0 1 .05.04 1.04 1.04 0 0 0 .47.19 1.026 1.026 0 0 0 .77-.25l1.85-1.5a1.1 1.1 0 0 1 .77-.28.986.986 0 0 1 .65.45l.01.01 2.33 3.09a1.019 1.019 0 0 1-.18 1.56z" fill="#9fcc3a" fill-rule="evenodd"/>
</svg>
