<svg xmlns="http://www.w3.org/2000/svg" width="38" height="26" viewBox="0 0 38 26"><g><g><path fill="#228520" d="M34 9v6h-7V7l4.274.169c.198 0 .389.069.532.201zm-1 1l-2-2h-3v6h5zM15.034 22.506c0 1.926-1.589 3.494-3.542 3.494-.953 0-1.85-.365-2.541-1.025a3.4 3.4 0 0 1-1.065-2.47c0-.931.382-1.801 1.065-2.47a3.645 3.645 0 0 1 2.54-1.024c1.954 0 3.543 1.568 3.543 3.495zM14 22.5c0-1.38-1.1-2.5-2.46-2.5C10.16 20 9 21.14 9 22.5s1.16 2.5 2.54 2.5C12.9 25 14 23.88 14 22.5zM7 21H3l.01-3.1.99.1v2h3zm2-5H0v-1h9zm-8-4s-.008 0 0 0h10l.04.984L1 13zm2-3h10v1H3zm35-.038V21h-3v-1h2V9l-5-4h-7v15h1v1h-9v-1h7V1H4v5H3L3.01.776C3.01.35 3.368 0 3.805 0H24.03c.437 0 .794.35.794.776L25 4h7l5.706 4.357a.812.812 0 0 1 .294.605zm-3.966 13.544c0 1.926-1.589 3.494-3.542 3.494-.953 0-1.85-.365-2.542-1.025a3.4 3.4 0 0 1-1.064-2.47c0-.931.381-1.801 1.064-2.47a3.645 3.645 0 0 1 2.542-1.024c1.953 0 3.542 1.568 3.542 3.495zM33 22.5c0-1.38-1.1-2.5-2.46-2.5-1.38 0-2.54 1.14-2.54 2.5s1.16 2.5 2.54 2.5C31.9 25 33 23.88 33 22.5z"/></g></g></svg>