<svg xmlns="http://www.w3.org/2000/svg" width="40" height="39" viewBox="0 0 40 39"><g><g><path fill="#fc7045" d="M40 12.127V37.97c0 .43-.35.78-.78.78H20.166c-.872.165-1.77.25-2.685.25h-.001c-3.474 0-6.717-1.215-9.13-3.421-2.724-2.49-4.164-6.026-4.164-10.227 0-.253.12-.477.305-.62l-4.29-8.795a1.506 1.506 0 0 1-.055-1.194c.15-.406.463-.738.86-.909l2.194-.95a1.607 1.607 0 0 1 1.278.004c.388.17.677.478.813.869L9.074 24.57h.685c.03-1.155.57-2.188 1.515-2.823a3.268 3.268 0 0 1 2.785-.429 3.388 3.388 0 0 1 3.114-2.079c.272 0 .54.032.8.096a4.492 4.492 0 0 1 1.05-.776v-6.438l.002-.021a.87.87 0 0 1 .002-.048l.004-.032.007-.044.007-.035a.71.71 0 0 1 .01-.038l.013-.039c.004-.01.007-.022.012-.032.005-.015.012-.028.018-.042l.014-.028a.767.767 0 0 1 .024-.042l.01-.019 4.828-7.556c-.715-.404-1.091-1.185-1.091-1.934 0-.565.195-1.098.55-1.5.404-.46.99-.712 1.65-.712h9.493c1.429 0 2.2 1.14 2.2 2.212a2.26 2.26 0 0 1-.55 1.5 2.04 2.04 0 0 1-.45.381l4.128 7.655c.013.024.025.05.036.075l.006.015a.926.926 0 0 1 .02.057l.01.036.008.038a.724.724 0 0 1 .01.058l.002.017a.787.787 0 0 1 .004.083zM24.443 2.212c0 .152.046.65.64.65h9.493c.593 0 .64-.498.64-.65 0-.153-.047-.652-.64-.652h-9.493c-.594 0-.64.499-.64.652zm-3.215 9.13h7.438l-3.487-6.184zm-9.908 13.23h16.703a1.813 1.813 0 0 0-2.741-2.298.782.782 0 0 1-1.268-.412 2.94 2.94 0 0 0-2.871-2.268c-.91 0-1.755.411-2.319 1.127a.781.781 0 0 1-.925.23 1.818 1.818 0 0 0-2.534 1.53.78.78 0 0 1-1.214.592c-.631-.425-1.4-.437-2.007-.03-.51.342-.798.89-.824 1.528zm-5.17-.001h1.27L3.835 14.314c-.005 0-.01.001-.013.003l-2.194.95a.027.027 0 0 0-.012.009zm19.413 9.855c2.226-2.033 3.476-4.89 3.64-8.295H10.607 5.766c.368 7.763 6.244 11.307 11.715 11.308h.001c.816 0 1.617-.075 2.394-.221a.764.764 0 0 1 .125-.024c2.108-.42 4.028-1.366 5.562-2.768zm3.659 2.764v-5.006a12.213 12.213 0 0 1-2.607 3.395 12.629 12.629 0 0 1-2.204 1.61zm0-24.287h-8.638v5.167a4.495 4.495 0 0 1 4.598 2.46 3.37 3.37 0 0 1 4.04 1.183zm1.236-1.56h7.454l-3.731-6.92h-7.625zm7.981 25.847v-2.387h-7.657v2.387zm0-3.948v-1.377h-7.657v1.377zm0-2.937V20.102h-7.657v10.203zm0-11.763v-1.377h-7.657v1.377zm0-2.937v-2.702h-7.657v2.702zM13.328 34.09a.78.78 0 0 1-1.085.202l-.025-.017a.78.78 0 1 1 .886-1.284l.02.013a.781.781 0 0 1 .204 1.086zm-1.989-1.481a.776.776 0 0 1-1.103-.028c-.853-.896-1.935-2.316-2.249-3.986a.78.78 0 1 1 1.534-.288c.243 1.296 1.138 2.454 1.846 3.199a.78.78 0 0 1-.028 1.103z"/></g></g></svg>