<svg xmlns="http://www.w3.org/2000/svg" width="44" height="44" viewBox="0 0 44 44"><g><g><path fill="#fc7045" d="M32.267 34.4v4.467A5.139 5.139 0 0 1 27.133 44H17.6a5.139 5.139 0 0 1-5.133-5.133v-17.14c0-1.869.477-3.708 1.383-5.342l1.084-1.95a9.556 9.556 0 0 0 1.2-4.629v-.272A2.2 2.2 0 0 1 17.6 7.468V4.4h1.467V0h5.866v4.4H26.4v2.934h.125a2.186 2.186 0 0 1 1.557.644l2.097 2.098a5.122 5.122 0 0 1 1.276 5.139l-.43 1.394a18.268 18.268 0 0 0 0 10.783l.366 1.186c.58 1.886.876 3.849.876 5.822zm-11.734-30h2.934V1.467h-2.934zm-1.466 2.934h5.866V5.867h-5.866zM30.8 34.4c0-1.828-.272-3.645-.809-5.391l-.366-1.187a19.725 19.725 0 0 1 0-11.645l.428-1.394a3.661 3.661 0 0 0-.912-3.672l-2.096-2.096a.73.73 0 0 0-.52-.215h-8.192a.733.733 0 0 0-.733.734v.272c0 1.87-.477 3.708-1.384 5.342l-1.083 1.95a9.558 9.558 0 0 0-1.2 4.629v17.14a3.672 3.672 0 0 0 3.667 3.667h9.533a3.672 3.672 0 0 0 3.667-3.667zm-1.467.126v5.807a.734.734 0 0 1-.733.734H16.133a.734.734 0 0 1-.733-.734V22.22a5.109 5.109 0 0 1 .46-2.127l2.878-6.329a3.65 3.65 0 0 0 .329-1.517V11c0-.405.328-.733.733-.733h5.867a.732.732 0 0 1 .52.214l1.614 1.613c.544.548.764 1.34.579 2.09l-.763 3.04c-.78 3.121-.725 6.391.157 9.484l.91 3.185c.431 1.506.65 3.066.65 4.633zM16.867 23.163l.445-.448a12.37 12.37 0 0 1 8.47-3.634c.094-.745.232-1.485.411-2.214l.76-3.04a.737.737 0 0 0-.192-.696l-1.398-1.398h-4.83v.514a5.108 5.108 0 0 1-.46 2.126l-2.878 6.329c-.217.477-.329.994-.328 1.518zm11 11.363c0-1.431-.2-2.855-.592-4.231l-.91-3.185a19.818 19.818 0 0 1-.725-6.554 10.916 10.916 0 0 0-7.291 3.199l-1.482 1.482V39.6h11zM44 3.666v1.468A3.67 3.67 0 0 0 40.333 8.8h-1.466A3.67 3.67 0 0 0 35.2 5.134V3.667A3.671 3.671 0 0 0 38.867 0h1.466A3.672 3.672 0 0 0 44 3.667zm-2.64.734a5.173 5.173 0 0 1-1.76-1.76 5.172 5.172 0 0 1-1.76 1.76 5.178 5.178 0 0 1 1.76 1.76 5.18 5.18 0 0 1 1.76-1.76zM8.8 16.867v1.466A3.671 3.671 0 0 0 5.133 22H3.667A3.671 3.671 0 0 0 0 18.333v-1.466A3.671 3.671 0 0 0 3.667 13.2h1.466A3.67 3.67 0 0 0 8.8 16.867zm-2.64.733a5.178 5.178 0 0 1-1.76-1.76 5.18 5.18 0 0 1-1.76 1.76 5.172 5.172 0 0 1 1.76 1.76 5.17 5.17 0 0 1 1.76-1.76z"/></g></g></svg>