<?xml version="1.0" encoding="UTF-8" standalone="no"?>
<svg xmlns="http://www.w3.org/2000/svg" width="18.28" height="23" viewBox="0 0 18.28 23">
  <path d="M9.06 12.39h.15a4.024 4.024 0 0 0 3.13-1.45c1.71-2.07 1.43-5.62 1.4-5.95-.11-2.54-1.23-3.75-2.16-4.32A4.63 4.63 0 0 0 9.19 0h-.08a4.65 4.65 0 0 0-2.39.65c-.93.57-2.07 1.78-2.18 4.34-.04.33-.32 3.88 1.39 5.95a4.024 4.024 0 0 0 3.13 1.45zM5.72 5.11a.227.227 0 0 1 .01-.04c.14-3.41 2.41-3.78 3.38-3.78h.05c1.2.03 3.24.55 3.38 3.78a.06.06 0 0 0 .01.04c0 .03.31 3.27-1.1 4.97a2.791 2.791 0 0 1-2.29 1.02h-.05a2.758 2.758 0 0 1-2.28-1.02C5.42 8.39 5.72 5.13 5.72 5.11zm12.56 13.16v-.02c0-.04-.01-.07-.01-.12-.03-.94-.08-3.14-2.01-3.85a.109.109 0 0 0-.05-.01 12.783 12.783 0 0 1-3.69-1.8.574.574 0 0 0-.84.15.682.682 0 0 0 .15.9 13.877 13.877 0 0 0 4.06 1.98c1.04.4 1.15 1.59 1.18 2.67a.487.487 0 0 0 .01.12 9.923 9.923 0 0 1-.09 1.47 16.756 16.756 0 0 1-15.69 0 9.984 9.984 0 0 1-.1-1.47c0-.04.01-.08.01-.12.03-1.09.15-2.27 1.18-2.67a13.217 13.217 0 0 0 4.06-1.99.667.667 0 0 0 .15-.89.584.584 0 0 0-.84-.16 12.052 12.052 0 0 1-3.69 1.8.076.076 0 0 1-.04.01C.1 14.99.04 17.19.01 18.13v.13a7.765 7.765 0 0 0 .22 2.16.645.645 0 0 0 .24.3 17.662 17.662 0 0 0 17.36 0 .625.625 0 0 0 .23-.3 8.549 8.549 0 0 0 .22-2.15z" fill="#9fcc3a" fill-rule="evenodd"/>
</svg>
