<svg xmlns="http://www.w3.org/2000/svg" width="90.34" height="105.62" viewBox="0 0 90.34 105.62" fill="white">
  <defs/>
  <path id="Forma_1" data-name="Forma 1" class="cls-1" d="M1684 4271.49a1.619 1.619 0 1 0 1.62 1.62 1.613 1.613 0 0 0-1.62-1.62zm32.38 3.24a8.111 8.111 0 0 1-8.09-8.11 1.626 1.626 0 0 0-1.62-1.62h-45.34a1.626 1.626 0 0 0-1.62 1.62 8.111 8.111 0 0 1-8.09 8.11 1.613 1.613 0 0 0-1.62 1.62v26.45a47.075 47.075 0 0 0 33.54 45.13 1.426 1.426 0 0 0 .46.07 1.531 1.531 0 0 0 .47-.07 47.089 47.089 0 0 0 33.53-45.13v-26.45a1.62 1.62 0 0 0-1.62-1.62zm-1.62 28.07a43.575 43.575 0 0 1-30.76 41.88 43.825 43.825 0 0 1-30.76-41.88v-24.95a11.371 11.371 0 0 0 9.6-9.61h42.32a11.371 11.371 0 0 0 9.6 9.61v24.95zm-4.21-22.81a14.536 14.536 0 0 1-7.52-7.54 1.639 1.639 0 0 0-1.49-.97h-11.07a1.625 1.625 0 0 0 0 3.25h10.05a17.789 17.789 0 0 0 7.77 7.77v20.3a36.918 36.918 0 0 1-24.29 35.03 36.918 36.918 0 0 1-24.29-35.03v-20.3a17.789 17.789 0 0 0 7.77-7.77h10.05a1.625 1.625 0 0 0 0-3.25h-11.07a1.639 1.639 0 0 0-1.49.97 14.536 14.536 0 0 1-7.52 7.54 1.622 1.622 0 0 0-.97 1.49v21.32a40.356 40.356 0 0 0 26.98 38.29 1.665 1.665 0 0 0 1.08 0 40.363 40.363 0 0 0 26.98-38.29v-21.32a1.622 1.622 0 0 0-.97-1.49zm-26.55 8.68a14.59 14.59 0 1 0 14.57 14.59 14.6 14.6 0 0 0-14.57-14.59zm0 25.94a11.35 11.35 0 1 1 11.33-11.35 11.357 11.357 0 0 1-11.33 11.35zm7.62-15.74a1.624 1.624 0 0 0-2.29 0l-6.95 6.96-2.09-2.1a1.623 1.623 0 1 0-2.29 2.3l3.24 3.24a1.621 1.621 0 0 0 1.14.47 1.645 1.645 0 0 0 1.15-.47l8.09-8.11a1.624 1.624 0 0 0 0-2.29z" transform="translate(-1650 -4242.38)"/>
  <path id="Forma_1-2" data-name="Forma 1" class="cls-1" d="M1739.31 4243.4c-3.03.67-4.66-1.03-8.13 5.28-1.75 3.19-2.24 4.1-2.97 5.35a5.439 5.439 0 0 0-1.31-.37c-.08-1.85-1.27-4.42 1.85-7.83a.874.874 0 0 0 .22-.51.849.849 0 0 0-.27-.69.837.837 0 0 0-1.18.05c-3.55 3.89-2.39 6.92-2.29 9.03a5.085 5.085 0 0 0-3.05 1.88 12.759 12.759 0 0 1-1.81 2.19.524.524 0 0 0-.11.1 20.578 20.578 0 0 1-5.34 3.95 5.232 5.232 0 0 0-1.67 7.15 5.08 5.08 0 0 0 7.05 1.68 31.4 31.4 0 0 0 9.91-8.62 5.234 5.234 0 0 0 .83-1.52c1.05-.53 2.01-.44 3.49-3.2l.07-.12c1.58-2.95.67-3.66 2.82-5.19a.845.845 0 0 0 .36-.63.853.853 0 0 0-.15-.55.826.826 0 0 0-1.16-.21c-2.48 1.76-1.58 2.5-3.34 5.77l-.07.12c-.92 1.72-.53 1.18-1.75 1.92a5.243 5.243 0 0 0-1.2-2.98 5.9 5.9 0 0 0-.49-.51c.73-1.24 1.24-2.19 3.02-5.44 3.17-5.76 4.34-3.85 7.03-4.45a.83.83 0 0 0 .65-.76.71.71 0 0 0-.01-.25.843.843 0 0 0-1-.64zm-10.48 13.14a3.571 3.571 0 0 1 .81 2.56 3.783 3.783 0 0 1-.1.57c0 .02-.01.03-.01.05a3.441 3.441 0 0 1-.63 1.27 1.47 1.47 0 0 0-.1.13l-.77-1.13a.825.825 0 0 0-1.16-.21.86.86 0 0 0-.22 1.18l1.02 1.49a24.956 24.956 0 0 1-4.68 4.41l-.94-1.61a.826.826 0 0 0-1.14-.3.849.849 0 0 0-.3 1.16l1.03 1.77a7.349 7.349 0 0 1-2.21 1.34 3.435 3.435 0 0 1-4.76-1.13 3.5 3.5 0 0 1-.5-2.12 3.56 3.56 0 0 1 1.63-2.71c.21-.13 1.57-.53 4.94-3.55l.9 1.28a.836.836 0 0 0 1.17.2.845.845 0 0 0 .35-.62.929.929 0 0 0-.15-.56l-1.03-1.46a11.209 11.209 0 0 0 1.51-1.91 3.429 3.429 0 0 1 4.85-.57 3.123 3.123 0 0 1 .49.47z" transform="translate(-1650 -4242.38)"/>
</svg>
