<svg xmlns="http://www.w3.org/2000/svg" width="69" height="88" viewBox="0 0 69 88">
  <path data-name="Forma 1" d="M29 0a2.07 2.07 0 0 1 1.686.87C31.801 2.47 58 40.29 58 59.42a29 29 0 0 1-58 0C0 40.29 26.2 2.47 27.314.87A2.068 2.068 0 0 1 29 0zm0 83.97a24.758 24.758 0 0 0 24.909-24.55c0-15.21-19.058-44.99-24.909-53.77-5.852 8.78-24.909 38.56-24.909 53.77A24.757 24.757 0 0 0 29 83.97zm2.045-7.39a2.028 2.028 0 0 1-2.046 2.01A19.336 19.336 0 0 1 9.545 59.42a2.046 2.046 0 0 1 4.091 0A15.269 15.269 0 0 0 29 74.56a2.03 2.03 0 0 1 2.045 2.02z" fill-rule="evenodd" fill="#fff"/>
  <text x="55.945" y="12.614" font-size="16" text-anchor="middle" font-family="Roboto" font-weight="700" fill="#fff">
    x60
  </text>
</svg>
