<svg xmlns="http://www.w3.org/2000/svg" width="71.88" height="88" viewBox="0 0 71.88 88">
  <defs/>
  <path fill-rule="evenodd" fill="#FFF" d="M71.947 1.799l-10.035 84.77c-.097.817-.813 1.431-1.662 1.431h-48.5c-.849 0-1.565-.614-1.662-1.431L.054 1.799A1.585 1.585 0 0 1 .468.539C.786.194 1.238 0 1.716 0h68.568c.478 0 .93.197 1.248.539.317.343.468.801.415 1.26zM13.242 84.771h45.513l6.118-51.686c-11.349-.104-20.856-1.829-30.037-3.51-9.23-1.69-17.984-3.278-28.526-3.381l6.932 58.577zM3.592 3.229l2.335 19.729c11.047.068 20.447 1.778 29.531 3.442 9.134 1.671 18.585 3.391 29.797 3.459l3.153-26.63H3.592zm32.271 36.579c0 .42-.171.808-.472 1.131a1.704 1.704 0 0 1-1.197.484c-.435 0-.836-.162-1.174-.484a1.488 1.488 0 0 1-.499-1.131c0-.455.168-.875.499-1.162.635-.61 1.709-.581 2.341 0 .335.326.502.742.502 1.162zm-3.549 15.918a1.706 1.706 0 0 1-1.197.488c-.402 0-.837-.165-1.174-.456-.301-.323-.499-.739-.499-1.159 0-.42.201-.843.499-1.134.669-.646 1.705-.61 2.341-.032a1.59 1.59 0 0 1 .03 2.293zM21.651 76.397c-.435 0-.873-.165-1.174-.484a1.488 1.488 0 0 1-.499-1.131c0-.42.168-.843.499-1.133.605-.611 1.743-.611 2.341 0 .335.29.502.713.502 1.133 0 .42-.171.84-.472 1.131a1.717 1.717 0 0 1-1.197.484zm-2.776-20.183c-.435 0-.87-.165-1.204-.485a1.585 1.585 0 0 1-.469-1.13c0-.42.168-.843.499-1.163.568-.581 1.672-.581 2.341 0a1.6 1.6 0 0 1 .502 1.163c0 .42-.168.807-.472 1.13-.361.32-.762.485-1.197.485zm0-18.311c-.435 0-.87-.165-1.204-.455a1.606 1.606 0 0 1-.469-1.16 1.5 1.5 0 0 1 .499-1.133c.568-.581 1.672-.61 2.341 0 .338.326.502.742.502 1.133 0 .42-.168.84-.472 1.131-.361.323-.762.484-1.197.484zm16.49 28.738c.334.326.501.71.501 1.133 0 .421-.17.84-.471 1.131a1.716 1.716 0 0 1-1.201.484c-.435 0-.836-.164-1.174-.455a1.598 1.598 0 0 1-.499-1.16c0-.423.168-.807.469-1.133.702-.61 1.742-.61 2.375 0zm8.361-16.405c.335.291.502.714.502 1.133 0 .421-.17.84-.471 1.13a1.73 1.73 0 0 1-1.201.485c-.435 0-.873-.165-1.174-.485a1.483 1.483 0 0 1-.499-1.13c0-.419.168-.842.469-1.133.635-.611 1.772-.611 2.374 0zm5.851 23.413c.334.326.501.713.501 1.133 0 .42-.17.84-.471 1.131a1.72 1.72 0 0 1-1.198.484c-.435 0-.836-.165-1.174-.456a1.599 1.599 0 0 1-.498-1.159c0-.42.167-.843.498-1.133.636-.611 1.709-.611 2.342 0zm-.599-15.821c0-.419.167-.843.468-1.134.669-.645 1.743-.609 2.375-.032.338.323.502.743.502 1.163 0 .42-.168.807-.472 1.131-.365.322-.799.487-1.201.487a1.72 1.72 0 0 1-1.174-.456 1.6 1.6 0 0 1-.498-1.159zm7.86-13.276c.301.323.502.743.502 1.163 0 .42-.204.839-.502 1.13a1.655 1.655 0 0 1-1.171.488c-.434 0-.869-.165-1.174-.456a1.6 1.6 0 0 1-.498-1.159c0-.42.167-.843.468-1.133.669-.611 1.743-.611 2.375-.033z"/>
</svg>
